<?xml version="1.0" encoding="UTF-8"?>
<svg id="Layer_1" xmlns="http://www.w3.org/2000/svg" viewBox="0 0 53.54 53.54">
  <defs>
    <style>
      .cls-1 {
        fill: #e99c35;
      }

      .cls-2 {
        fill: #414042;
      }
    </style>
  </defs>
  <path class="cls-2" d="M26.77,50.54c-13.11,0-23.77-10.66-23.77-23.77S13.66,3,26.77,3s23.77,10.66,23.77,23.77-10.66,23.77-23.77,23.77Z"/>
  <path class="cls-1" d="M26.77,5.5c11.73,0,21.27,9.54,21.27,21.27s-9.54,21.27-21.27,21.27S5.5,38.5,5.5,26.77,15.04,5.5,26.77,5.5M26.77.5C12.26.5.5,12.26.5,26.77s11.76,26.27,26.27,26.27,26.27-11.76,26.27-26.27S41.28.5,26.77.5h0Z"/>
</svg>